<?xml version="1.0" encoding="utf-8"?>
<svg xmlns="http://www.w3.org/2000/svg" viewBox="-265.81 -34.691 500 500" xmlns:bx="https://boxy-svg.com" width="505px" height="505px"><defs><filter id="filter0_d_2164_2166" x="31.0008" y="1.27399" width="0.99596" height="1.00853" filterUnits="userSpaceOnUse" color-interpolation-filters="sRGB"><feFlood flood-opacity="0" result="BackgroundImageFix"/><feColorMatrix in="SourceAlpha" type="matrix" values="0 0 0 0 0 0 0 0 0 0 0 0 0 0 0 0 0 0 127 0" result="hardAlpha"/><feOffset/><feGaussianBlur stdDeviation="0.170743"/><feComposite in2="hardAlpha" operator="out"/><feColorMatrix type="matrix" values="0 0 0 0 0.592157 0 0 0 0 0.392157 0 0 0 0 1 0 0 0 1 0"/><feBlend mode="normal" in2="BackgroundImageFix" result="effect1_dropShadow_2164_2166"/><feBlend mode="normal" in="SourceGraphic" in2="effect1_dropShadow_2164_2166" result="shape"/></filter><filter id="filter1_d_2164_2166" x="4.39242" y="4.30758" width="2.58381" height="2.6164" filterUnits="userSpaceOnUse" color-interpolation-filters="sRGB"><feFlood flood-opacity="0" result="BackgroundImageFix"/><feColorMatrix in="SourceAlpha" type="matrix" values="0 0 0 0 0 0 0 0 0 0 0 0 0 0 0 0 0 0 127 0" result="hardAlpha"/><feOffset/><feGaussianBlur stdDeviation="0.442949"/><feComposite in2="hardAlpha" operator="out"/><feColorMatrix type="matrix" values="0 0 0 0 0.592157 0 0 0 0 0.392157 0 0 0 0 1 0 0 0 1 0"/><feBlend mode="normal" in2="BackgroundImageFix" result="effect1_dropShadow_2164_2166"/><feBlend mode="normal" in="SourceGraphic" in2="effect1_dropShadow_2164_2166" result="shape"/></filter><filter id="filter2_d_2164_2166" x="0.210293" y="16.6759" width="2.58381" height="2.6164" filterUnits="userSpaceOnUse" color-interpolation-filters="sRGB"><feFlood flood-opacity="0" result="BackgroundImageFix"/><feColorMatrix in="SourceAlpha" type="matrix" values="0 0 0 0 0 0 0 0 0 0 0 0 0 0 0 0 0 0 127 0" result="hardAlpha"/><feOffset/><feGaussianBlur stdDeviation="0.442949"/><feComposite in2="hardAlpha" operator="out"/><feColorMatrix type="matrix" values="0 0 0 0 0.592157 0 0 0 0 0.392157 0 0 0 0 1 0 0 0 1 0"/><feBlend mode="normal" in2="BackgroundImageFix" result="effect1_dropShadow_2164_2166"/><feBlend mode="normal" in="SourceGraphic" in2="effect1_dropShadow_2164_2166" result="shape"/></filter><filter id="filter3_d_2164_2166" x="24.2508" y="20.0711" width="2.58381" height="2.6164" filterUnits="userSpaceOnUse" color-interpolation-filters="sRGB"><feFlood flood-opacity="0" result="BackgroundImageFix"/><feColorMatrix in="SourceAlpha" type="matrix" values="0 0 0 0 0 0 0 0 0 0 0 0 0 0 0 0 0 0 127 0" result="hardAlpha"/><feOffset/><feGaussianBlur stdDeviation="0.442949"/><feComposite in2="hardAlpha" operator="out"/><feColorMatrix type="matrix" values="0 0 0 0 0.592157 0 0 0 0 0.392157 0 0 0 0 1 0 0 0 1 0"/><feBlend mode="normal" in2="BackgroundImageFix" result="effect1_dropShadow_2164_2166"/><feBlend mode="normal" in="SourceGraphic" in2="effect1_dropShadow_2164_2166" result="shape"/></filter><filter id="filter4_d_2164_2166" x="6.02961" y="13.9844" width="0.99596" height="1.00853" filterUnits="userSpaceOnUse" color-interpolation-filters="sRGB"><feFlood flood-opacity="0" result="BackgroundImageFix"/><feColorMatrix in="SourceAlpha" type="matrix" values="0 0 0 0 0 0 0 0 0 0 0 0 0 0 0 0 0 0 127 0" result="hardAlpha"/><feOffset/><feGaussianBlur stdDeviation="0.170743"/><feComposite in2="hardAlpha" operator="out"/><feColorMatrix type="matrix" values="0 0 0 0 0.592157 0 0 0 0 0.392157 0 0 0 0 1 0 0 0 1 0"/><feBlend mode="normal" in2="BackgroundImageFix" result="effect1_dropShadow_2164_2166"/><feBlend mode="normal" in="SourceGraphic" in2="effect1_dropShadow_2164_2166" result="shape"/></filter><filter id="filter5_d_2164_2166" x="11.7417" y="0.463378" width="1.56494" height="1.58484" filterUnits="userSpaceOnUse" color-interpolation-filters="sRGB"><feFlood flood-opacity="0" result="BackgroundImageFix"/><feColorMatrix in="SourceAlpha" type="matrix" values="0 0 0 0 0 0 0 0 0 0 0 0 0 0 0 0 0 0 127 0" result="hardAlpha"/><feOffset/><feGaussianBlur stdDeviation="0.268311"/><feComposite in2="hardAlpha" operator="out"/><feColorMatrix type="matrix" values="0 0 0 0 0.592157 0 0 0 0 0.392157 0 0 0 0 1 0 0 0 1 0"/><feBlend mode="normal" in2="BackgroundImageFix" result="effect1_dropShadow_2164_2166"/><feBlend mode="normal" in="SourceGraphic" in2="effect1_dropShadow_2164_2166" result="shape"/></filter><filter id="filter6_d_2164_2166" x="0.732341" y="9.55252" width="4.62028" height="4.71879" filterUnits="userSpaceOnUse" color-interpolation-filters="sRGB"><feFlood flood-opacity="0" result="BackgroundImageFix"/><feColorMatrix in="SourceAlpha" type="matrix" values="0 0 0 0 0 0 0 0 0 0 0 0 0 0 0 0 0 0 127 0" result="hardAlpha"/><feOffset dy="0.281606"/><feGaussianBlur stdDeviation="0.540812"/><feComposite in2="hardAlpha" operator="out"/><feColorMatrix type="matrix" values="0 0 0 0 0.220722 0 0 0 0 0.210451 0 0 0 0 0.241667 0 0 0 0.6 0"/><feBlend mode="normal" in2="BackgroundImageFix" result="effect1_dropShadow_2164_2166"/><feBlend mode="normal" in="SourceGraphic" in2="effect1_dropShadow_2164_2166" result="shape"/></filter><filter id="filter8_d_2164_2166" x="20.2885" y="2.26113" width="7.65252" height="7.78802" filterUnits="userSpaceOnUse" color-interpolation-filters="sRGB"><feFlood flood-opacity="0" result="BackgroundImageFix"/><feColorMatrix in="SourceAlpha" type="matrix" values="0 0 0 0 0 0 0 0 0 0 0 0 0 0 0 0 0 0 127 0" result="hardAlpha"/><feOffset dy="0.554677"/><feGaussianBlur stdDeviation="1.06523"/><feComposite in2="hardAlpha" operator="out"/><feColorMatrix type="matrix" values="0 0 0 0 0.296824 0 0 0 0 0.244184 0 0 0 0 0.404167 0 0 0 0.6 0"/><feBlend mode="normal" in2="BackgroundImageFix" result="effect1_dropShadow_2164_2166"/><feBlend mode="normal" in="SourceGraphic" in2="effect1_dropShadow_2164_2166" result="shape"/></filter><bx:export><bx:file format="svg" width="505" height="505"/><bx:file format="png"/></bx:export></defs><path d="M 71.773 165.033 L 71.773 168.618 L 63.558 168.618 L 63.558 165.033 L 66.046 165.033 L 66.046 149.046 L 63.558 149.046 L 63.558 145.421 L 71.773 145.421 L 71.773 149.046 L 69.354 149.046 L 69.354 165.033 L 71.773 165.033 Z M 75.866 168.618 L 75.866 145.421 L 81.692 145.421 L 86.013 166.805 L 86.08 166.805 L 90.368 145.421 L 96.162 145.421 L 96.162 168.618 L 92.692 168.618 L 92.922 147.315 L 92.888 147.315 L 88.47 168.618 L 83.558 168.618 L 79.204 147.315 L 79.139 147.315 L 79.336 168.618 L 75.866 168.618 Z M 98.632 168.618 L 104.523 145.421 L 109.991 145.421 L 116.047 168.618 L 112.477 168.618 L 110.907 162.067 L 103.739 162.067 L 102.166 168.618 L 98.632 168.618 Z M 107.308 147.193 L 104.523 158.812 L 110.122 158.812 L 107.308 147.193 Z M 126.046 169.072 C 124.256 169.072 122.686 168.618 121.333 167.711 C 120.001 166.805 118.974 165.473 118.255 163.715 C 117.535 161.929 117.195 159.746 117.239 157.164 C 117.261 154.553 117.663 152.343 118.45 150.53 C 119.259 148.717 120.362 147.343 121.758 146.41 C 123.153 145.475 124.769 145.008 126.603 145.008 C 129.112 145.008 131.055 145.695 132.429 147.068 C 133.806 148.443 134.723 150.433 135.18 153.044 L 131.973 153.62 C 131.645 151.889 130.969 150.68 129.941 149.995 C 128.939 149.307 127.827 148.964 126.603 148.964 C 124.508 148.964 122.968 149.678 121.986 151.107 C 121.027 152.536 120.536 154.444 120.514 156.834 C 120.514 159.472 121.07 161.503 122.184 162.932 C 123.296 164.333 124.889 165.033 126.963 165.033 C 128.228 165.033 129.374 164.663 130.4 163.921 C 131.425 163.152 132.091 161.929 132.397 160.254 L 128.34 160.254 L 128.34 157.164 L 135.539 157.164 L 135.539 168.618 L 133.28 168.618 L 132.528 164.58 L 132.463 164.58 C 132.245 165.267 131.862 165.954 131.318 166.64 C 130.794 167.327 130.094 167.904 129.223 168.371 C 128.35 168.838 127.29 169.072 126.046 169.072 Z M 147.132 165.033 L 147.132 168.618 L 138.915 168.618 L 138.915 165.033 L 141.402 165.033 L 141.402 149.046 L 138.915 149.046 L 138.915 145.421 L 147.132 145.421 L 147.132 149.046 L 144.708 149.046 L 144.708 165.033 L 147.132 165.033 Z M 151.125 145.421 L 151.125 168.618 L 151.125 145.421 Z" style="stroke: rgb(255, 249, 243); fill: rgb(255, 173, 134);"/><g filter="url(#filter0_d_2164_2166)" transform="matrix(1.018892, 0, 0, 1.366173, 31.741085, 137.587753)" style=""><path d="M31.4988 1.94103C31.5852 1.94103 31.6553 1.86815 31.6553 1.77825C31.6553 1.68836 31.5852 1.61548 31.4988 1.61548C31.4124 1.61548 31.3423 1.68836 31.3423 1.77825C31.3423 1.86815 31.4124 1.94103 31.4988 1.94103Z" style="stroke: rgb(255, 249, 243); fill: rgb(255, 173, 134);"/></g><g filter="url(#filter1_d_2164_2166)" transform="matrix(1.018892, 0, 0, 1.366173, 31.741085, 137.587753)" style=""><path d="M5.68436 6.03804C5.90861 6.03804 6.09039 5.84898 6.09039 5.61576C6.09039 5.38254 5.90861 5.19348 5.68436 5.19348C5.46011 5.19348 5.27832 5.38254 5.27832 5.61576C5.27832 5.84898 5.46011 6.03804 5.68436 6.03804Z" style="stroke: rgb(255, 249, 243); fill: rgb(255, 173, 134);"/></g><g filter="url(#filter2_d_2164_2166)" transform="matrix(1.018892, 0, 0, 1.366173, 31.741085, 137.587753)" style=""><path d="M1.50223 18.4063C1.72648 18.4063 1.90827 18.2173 1.90827 17.984C1.90827 17.7508 1.72648 17.5618 1.50223 17.5618C1.27798 17.5618 1.09619 17.7508 1.09619 17.984C1.09619 18.2173 1.27798 18.4063 1.50223 18.4063Z" style="stroke: rgb(255, 249, 243); fill: rgb(255, 173, 134);"/></g><g filter="url(#filter3_d_2164_2166)" transform="matrix(1.018892, 0, 0, 1.366173, 31.741085, 137.587753)" style=""><path d="M25.5428 21.8016C25.767 21.8016 25.9488 21.6125 25.9488 21.3793C25.9488 21.1461 25.767 20.957 25.5428 20.957C25.3185 20.957 25.1367 21.1461 25.1367 21.3793C25.1367 21.6125 25.3185 21.8016 25.5428 21.8016Z" style="stroke: rgb(255, 249, 243); fill: rgb(255, 173, 134);"/></g><g filter="url(#filter4_d_2164_2166)" transform="matrix(1.018892, 0, 0, 1.366173, 31.741085, 137.587753)" style=""><path d="M6.52761 14.6515C6.61405 14.6515 6.68412 14.5786 6.68412 14.4887C6.68412 14.3988 6.61405 14.3259 6.52761 14.3259C6.44117 14.3259 6.37109 14.3988 6.37109 14.4887C6.37109 14.5786 6.44117 14.6515 6.52761 14.6515Z" style="stroke: rgb(255, 249, 243); fill: rgb(255, 173, 134);"/></g><g filter="url(#filter5_d_2164_2166)" transform="matrix(1.018892, 0, 0, 1.366173, 31.741085, 137.587753)" style=""><path d="M12.5243 1.51158C12.6601 1.51158 12.7702 1.39706 12.7702 1.25579C12.7702 1.11452 12.6601 1 12.5243 1C12.3884 1 12.2783 1.11452 12.2783 1.25579C12.2783 1.39706 12.3884 1.51158 12.5243 1.51158Z" style="stroke: rgb(255, 249, 243); fill: rgb(255, 173, 134);"/></g><g filter="url(#filter6_d_2164_2166)" transform="matrix(1.018892, 0, 0, 1.366173, 31.741085, 137.587753)" style=""><path d="M3.22758 12.9061C3.14757 12.9187 3.07313 12.8679 3.04946 12.783C2.82758 12.0289 2.71089 11.9374 1.98526 11.965C1.90152 11.9675 1.8278 11.906 1.81574 11.8228C1.80352 11.7385 1.85569 11.6595 1.93609 11.6339C2.63013 11.4199 2.70486 11.3161 2.72206 10.5257C2.72411 10.438 2.77857 10.3669 2.85747 10.3545C2.93859 10.3417 3.01192 10.3929 3.03781 10.4773C3.2573 11.2306 3.37399 11.3221 4.09851 11.2946C4.18464 11.2929 4.25691 11.3525 4.26931 11.4379C4.28137 11.521 4.23141 11.5997 4.1488 11.6257C3.45397 11.8421 3.38019 11.9446 3.36521 12.7346C3.36111 12.8239 3.30537 12.894 3.22758 12.9061Z" style="stroke: rgb(255, 249, 243); fill: rgb(255, 173, 134);"/></g><path d="M 47.631 146.639 C 47.416 146.751 47.272 147.038 47.272 147.357 C 47.272 147.677 47.416 147.964 47.631 148.077 C 49.345 148.974 50.698 150.86 51.342 153.251 C 51.422 153.552 51.628 153.751 51.857 153.751 C 52.087 153.751 52.293 153.552 52.373 153.251 C 53.017 150.86 54.37 148.974 56.084 148.077 C 56.299 147.964 56.443 147.677 56.443 147.357 C 56.443 147.038 56.299 146.751 56.084 146.639 C 54.37 145.741 53.017 143.855 52.373 141.464 C 52.293 141.163 52.087 140.964 51.857 140.964 C 51.628 140.964 51.422 141.163 51.342 141.464 C 50.698 143.855 49.345 145.741 47.631 146.639 Z M 41.785 145.845 C 41.66 145.467 41.388 145.226 41.092 145.226 C 40.796 145.226 40.524 145.467 40.4 145.845 C 38.773 150.746 35.949 154.683 32.433 156.948 C 32.161 157.122 31.989 157.501 31.989 157.921 C 31.989 158.34 32.161 158.713 32.433 158.887 C 35.947 161.149 38.774 165.088 40.395 169.988 C 40.519 170.368 40.791 170.608 41.088 170.608 C 41.383 170.608 41.656 170.368 41.78 169.988 C 43.405 165.084 46.229 161.145 49.746 158.88 C 50.018 158.706 50.191 158.327 50.191 157.914 C 50.191 157.501 50.018 157.122 49.746 156.948 C 46.232 154.687 43.408 150.746 41.785 145.845 Z M 51.342 162.776 C 50.698 165.167 49.345 167.054 47.631 167.951 C 47.416 168.063 47.272 168.35 47.272 168.67 C 47.272 168.989 47.416 169.276 47.631 169.39 C 49.345 170.286 50.698 172.173 51.342 174.563 C 51.422 174.864 51.628 175.063 51.857 175.063 C 52.087 175.063 52.293 174.864 52.373 174.563 C 53.017 172.173 54.37 170.286 56.084 169.39 C 56.299 169.276 56.443 168.989 56.443 168.67 C 56.443 168.35 56.299 168.063 56.084 167.951 C 54.37 167.054 53.017 165.167 52.373 162.776 C 52.293 162.476 52.087 162.276 51.857 162.276 C 51.628 162.276 51.422 162.476 51.342 162.776 Z" style="stroke: rgb(255, 249, 243); fill: rgb(255, 173, 134);"/><g filter="url(#filter8_d_2164_2166)" transform="matrix(1.018892, 0, 0, 1.366173, 31.741085, 137.587753)" style=""><path d="M23.872 7.36177C23.7616 7.34534 23.6827 7.24737 23.6838 7.12559C23.6787 6.03816 23.5595 5.86916 22.5907 5.60594C22.4792 5.57474 22.4053 5.46284 22.4211 5.34812C22.4372 5.23175 22.5363 5.14897 22.6522 5.14834C23.6504 5.15229 23.7888 5.046 24.1132 4.0094C24.1494 3.89443 24.2485 3.82298 24.3574 3.8392C24.4694 3.85589 24.5467 3.95363 24.5486 4.07593C24.551 5.16124 24.6701 5.33034 25.6374 5.59325C25.7518 5.62653 25.8245 5.735 25.8083 5.85294C25.7925 5.96765 25.6964 6.05096 25.5774 6.05116C24.5772 6.05012 24.4406 6.15496 24.1193 7.19204C24.0798 7.30821 23.9794 7.37778 23.872 7.36177Z" style="stroke: rgb(255, 249, 243); fill: rgb(255, 173, 134);"/></g><path d="M 160.083 169.658 C 157.7 169.658 155.609 169.212 153.807 168.321 C 152.033 167.431 150.665 166.122 149.707 164.396 C 148.748 162.641 148.295 160.497 148.354 157.96 C 148.384 155.396 148.919 153.224 149.967 151.443 C 151.044 149.662 152.513 148.313 154.373 147.396 C 156.231 146.478 158.383 146.019 160.826 146.019 C 164.166 146.019 166.755 146.694 168.584 148.043 C 170.418 149.394 167.977 154.479 167.977 154.479 C 167.541 152.779 166.641 151.591 165.271 150.918 C 163.937 150.242 162.455 149.906 160.826 149.906 C 158.035 149.906 155.983 150.606 154.677 152.011 C 153.4 153.414 152.746 155.289 152.716 157.636 C 152.716 160.228 153.457 162.222 154.94 163.627 C 156.421 165.003 158.543 165.69 161.305 165.69 C 162.989 165.69 164.516 165.327 165.882 164.598 C 167.247 163.843 163.139 160.996 163.139 160.996 L 172.726 169.212 L 168.716 165.245 L 168.63 165.245 C 168.339 165.921 167.829 166.595 167.105 167.269 C 166.407 167.944 165.475 168.511 164.315 168.969 C 163.152 169.428 161.741 169.658 160.083 169.658 Z" style="stroke: rgb(255, 249, 243); fill: rgb(255, 173, 134);"/></svg>